<svg width="184" height="63" viewBox="0 0 184 63" fill="none" xmlns="http://www.w3.org/2000/svg">
<circle cx="34.5" cy="31.5" r="24.5" fill="#003471"/>
<path d="M37.429 13.1818H45.3324V39.5511C45.3324 41.9886 44.7846 44.1061 43.6889 45.9034C42.6056 47.7008 41.0975 49.0857 39.1648 50.0582C37.232 51.0308 34.9853 51.517 32.4247 51.517C30.1473 51.517 28.0791 51.117 26.2202 50.3168C24.3736 49.5043 22.9086 48.2732 21.8253 46.6236C20.742 44.9616 20.2064 42.875 20.2188 40.3636H28.1776C28.2022 41.3608 28.4053 42.2164 28.7869 42.9304C29.1809 43.6321 29.7164 44.1738 30.3935 44.5554C31.0829 44.9247 31.8954 45.1094 32.831 45.1094C33.8158 45.1094 34.6468 44.9001 35.3239 44.4815C36.0133 44.0507 36.5365 43.4228 36.8935 42.598C37.2505 41.7732 37.429 40.7576 37.429 39.5511V13.1818Z" fill="white"/>
<circle cx="58" cy="32" r="7" fill="white"/>
<path d="M66.7614 31.8182C66.7614 34.0587 66.3305 35.9579 65.4688 37.5156C64.607 39.0734 63.4403 40.2566 61.9688 41.0653C60.5038 41.8741 58.8598 42.2784 57.0369 42.2784C55.2074 42.2784 53.5601 41.8707 52.0952 41.0554C50.6302 40.2401 49.4669 39.0568 48.6051 37.5057C47.75 35.9479 47.3224 34.0521 47.3224 31.8182C47.3224 29.5777 47.75 27.6785 48.6051 26.1207C49.4669 24.563 50.6302 23.3797 52.0952 22.571C53.5601 21.7623 55.2074 21.358 57.0369 21.358C58.8598 21.358 60.5038 21.7623 61.9688 22.571C63.4403 23.3797 64.607 24.563 65.4688 26.1207C66.3305 27.6785 66.7614 29.5777 66.7614 31.8182ZM61.7301 31.8182C61.7301 30.4924 61.5412 29.3722 61.1634 28.4574C60.7921 27.5426 60.2552 26.8499 59.5526 26.3793C58.8565 25.9086 58.018 25.6733 57.0369 25.6733C56.0625 25.6733 55.224 25.9086 54.5213 26.3793C53.8187 26.8499 53.2784 27.5426 52.9006 28.4574C52.5294 29.3722 52.3438 30.4924 52.3438 31.8182C52.3438 33.1439 52.5294 34.2642 52.9006 35.179C53.2784 36.0937 53.8187 36.7865 54.5213 37.2571C55.224 37.7277 56.0625 37.9631 57.0369 37.9631C58.018 37.9631 58.8565 37.7277 59.5526 37.2571C60.2552 36.7865 60.7921 36.0937 61.1634 35.179C61.5412 34.2642 61.7301 33.1439 61.7301 31.8182ZM69.6349 42V21.6364H78.1264C79.651 21.6364 80.9271 21.8518 81.9545 22.2827C82.9886 22.7135 83.7642 23.3168 84.2812 24.0923C84.8049 24.8679 85.0668 25.7661 85.0668 26.7869C85.0668 27.5625 84.9044 28.2552 84.5795 28.8651C84.2547 29.4683 83.8073 29.9687 83.2372 30.3665C82.6671 30.7642 82.0076 31.0426 81.2585 31.2017V31.4006C82.0805 31.4403 82.8395 31.6624 83.5355 32.0668C84.2382 32.4711 84.8016 33.0346 85.2259 33.7571C85.6501 34.473 85.8622 35.3215 85.8622 36.3026C85.8622 37.3963 85.5838 38.3741 85.027 39.2358C84.4702 40.0909 83.6648 40.767 82.6108 41.2642C81.5568 41.7547 80.2775 42 78.7727 42H69.6349ZM74.5568 38.0327H77.5994C78.6667 38.0327 79.4522 37.8305 79.956 37.4261C80.4664 37.0218 80.7216 36.4583 80.7216 35.7358C80.7216 35.2121 80.599 34.7614 80.3537 34.3835C80.1084 33.9991 79.7604 33.7041 79.3097 33.4986C78.8589 33.2865 78.3187 33.1804 77.6889 33.1804H74.5568V38.0327ZM74.5568 30.0085H77.2812C77.8182 30.0085 78.2955 29.919 78.7131 29.7401C79.1307 29.5611 79.4555 29.3026 79.6875 28.9645C79.9261 28.6264 80.0455 28.2187 80.0455 27.7415C80.0455 27.0587 79.8035 26.5218 79.3196 26.1307C78.8357 25.7396 78.1828 25.544 77.3608 25.544H74.5568V30.0085ZM94.2443 42V21.6364H99.1662V29.8097H107.19V21.6364H112.102V42H107.19V33.8168H99.1662V42H94.2443ZM127.509 21.6364H132.421V34.7713C132.421 36.2893 132.06 37.6117 131.337 38.7386C130.615 39.8589 129.607 40.7273 128.315 41.3438C127.022 41.9536 125.521 42.2585 123.81 42.2585C122.08 42.2585 120.569 41.9536 119.276 41.3438C117.984 40.7273 116.979 39.8589 116.263 38.7386C115.548 37.6117 115.19 36.2893 115.19 34.7713V21.6364H120.112V34.3438C120.112 35.0464 120.264 35.6728 120.569 36.223C120.88 36.7732 121.315 37.2041 121.871 37.5156C122.428 37.8272 123.075 37.983 123.81 37.983C124.546 37.983 125.189 37.8272 125.739 37.5156C126.296 37.2041 126.73 36.7732 127.042 36.223C127.353 35.6728 127.509 35.0464 127.509 34.3438V21.6364ZM152.837 21.6364V42H148.661L140.557 30.2472H140.428V42H135.506V21.6364H139.742L147.756 33.3693H147.925V21.6364H152.837ZM155.266 25.6335V21.6364H172.477V25.6335H166.303V42H161.45V25.6335H155.266Z" fill="#1C84FF"/>
</svg>
